<svg width="132" height="132" viewBox="0 0 132 132" fill="none" xmlns="http://www.w3.org/2000/svg">
<g clip-path="url(#clip0_38_187)">
<g opacity="0.6" filter="url(#filter0_f_38_187)">
<circle cx="66" cy="66" r="43" fill="#DDFF00"/>
</g>
<path opacity="0.7" d="M66 34C80.3325 34 92 45.3376 92 59.3856C92 69.0048 87.0535 76.0128 82.965 80.1664L82.042 81.072L81.1645 81.8784L80.3455 82.5824L79.273 83.4464L78.207 84.2272C77.4237 84.7712 76.8973 85.568 76.4195 86.3968L75.7533 87.5616C74.9798 88.8736 74.073 90 72.1522 90H59.8478C57.9303 90 57.0202 88.8768 56.2467 87.5616L55.8632 86.896C55.3042 85.8976 54.7323 84.88 53.793 84.2272L53.039 83.68L52.3923 83.184L51.6545 82.5824L50.8355 81.8784L49.958 81.072L49.0317 80.1664C44.9465 76.0128 40 69.0048 40 59.3856C40 45.3376 51.6675 34 66 34Z" fill="#AAFF00"/>
<path d="M68.9997 91.6249C69.7645 91.6258 70.5002 91.9369 71.0564 92.4947C71.6126 93.0524 71.9473 93.8146 71.9922 94.6257C72.037 95.4367 71.7885 96.2353 71.2976 96.8583C70.8067 97.4813 70.1103 97.8817 69.3508 97.9777L68.9997 98H62.9977C62.2328 97.9991 61.4971 97.688 60.9409 97.1303C60.3847 96.5726 60.05 95.8103 60.0052 94.9993C59.9603 94.1882 60.2088 93.3896 60.6997 92.7666C61.1906 92.1436 61.887 91.7432 62.6466 91.6473L62.9977 91.6249H68.9997ZM71.1214 47.9335C70.6046 47.3847 69.9171 47.055 69.1878 47.0063C68.4584 46.9576 67.7374 47.1932 67.16 47.6689L66.8779 47.9335L60.897 54.2862C60.3752 54.8405 60.0617 55.5779 60.0153 56.3602C59.9689 57.1424 60.1927 57.9158 60.6449 58.5352L60.897 58.838L64.7562 62.9372L60.876 67.0587C60.3377 67.6323 60.0253 68.402 60.002 69.2115C59.9787 70.0209 60.2464 70.8095 60.7507 71.4169C61.2549 72.0243 61.958 72.4051 62.717 72.4819C63.476 72.5587 64.2341 72.3258 64.8373 71.8304L65.1194 71.5658L71.1003 65.2131C72.1807 64.0656 72.2887 62.2455 71.3524 60.9641L71.1003 60.6613L67.2411 56.5621L71.1214 52.4407C71.6839 51.8429 72 51.0323 72 50.1871C72 49.3419 71.6839 48.5313 71.1214 47.9335Z" fill="white"/>
</g>
<defs>
<filter id="filter0_f_38_187" x="-7" y="-7" width="146" height="146" filterUnits="userSpaceOnUse" color-interpolation-filters="sRGB">
<feFlood flood-opacity="0" result="BackgroundImageFix"/>
<feBlend mode="normal" in="SourceGraphic" in2="BackgroundImageFix" result="shape"/>
<feGaussianBlur stdDeviation="15" result="effect1_foregroundBlur_38_187"/>
</filter>
<clipPath id="clip0_38_187">
<rect width="132" height="132" fill="white"/>
</clipPath>
</defs>
</svg>
