<svg width="112" height="31" viewBox="0 0 112 31" fill="none" xmlns="http://www.w3.org/2000/svg">
<path d="M10 20.1748V19.6292C10 11.6213 14.387 4.55286 21.0773 0.334595C27.7677 4.55286 32.1547 11.6213 32.1547 19.6292L32.1546 19.6314L32.1547 20.1155C32.1547 25.8106 27.8745 30.0276 22.3617 30.6654V30.0499C22.3617 28.7703 23.3125 27.7183 24.4498 27.1318C26.924 25.8559 28.6227 23.2198 28.6227 20.1748C28.6227 15.8809 25.2445 12.3999 21.0773 12.3999C16.9101 12.3999 13.5319 15.8809 13.5319 20.1748C13.5319 23.2198 15.2306 25.8559 17.7049 27.1318C18.8421 27.7183 19.793 28.7703 19.793 30.0499V30.6654C14.2802 30.0276 10 25.8699 10 20.1748Z" fill="#1A1A1A"/>
<path d="M96.0102 11.133C95.939 10.35 95.6222 9.7414 95.0599 9.3072C94.5047 8.86587 93.711 8.64521 92.6789 8.64521C91.9955 8.64521 91.4261 8.73419 90.9705 8.91214C90.515 9.09009 90.1733 9.33567 89.9455 9.64887C89.7177 9.95495 89.6003 10.3073 89.5932 10.7059C89.5789 11.0333 89.643 11.3216 89.7854 11.5708C89.9348 11.8199 90.1484 12.0406 90.426 12.2328C90.7107 12.4178 91.0524 12.5815 91.451 12.7239C91.8496 12.8663 92.2981 12.9908 92.7963 13.0976L94.6755 13.5247C95.7575 13.7596 96.7113 14.0728 97.537 14.4643C98.3698 14.8558 99.0674 15.322 99.6298 15.863C100.199 16.404 100.63 17.0268 100.922 17.7315C101.214 18.4362 101.363 19.2263 101.37 20.1019C101.363 21.4828 101.014 22.6679 100.324 23.6574C99.6333 24.6468 98.6403 25.4049 97.3448 25.9316C96.0564 26.4584 94.5011 26.7217 92.6789 26.7217C90.8495 26.7217 89.2551 26.4477 87.8955 25.8996C86.5359 25.3515 85.4789 24.5187 84.7244 23.4011C83.9698 22.2836 83.5819 20.8706 83.5605 19.1623H88.6215C88.6643 19.867 88.8529 20.4542 89.1874 20.924C89.522 21.3938 89.9811 21.7497 90.5648 21.9917C91.1556 22.2337 91.8389 22.3547 92.6148 22.3547C93.3266 22.3547 93.9317 22.2587 94.4299 22.0665C94.9353 21.8743 95.3233 21.6073 95.5938 21.2657C95.8643 20.924 96.0031 20.5325 96.0102 20.0912C96.0031 19.6783 95.8749 19.326 95.6258 19.0341C95.3767 18.7352 94.9923 18.4789 94.4727 18.2654C93.9602 18.0447 93.3053 17.8418 92.508 17.6568L90.2231 17.1229C88.3297 16.6887 86.8384 15.9876 85.7494 15.0195C84.6603 14.0443 84.1193 12.7275 84.1264 11.0689C84.1193 9.71649 84.4823 8.53132 85.2155 7.51342C85.9487 6.49553 86.963 5.70186 88.2585 5.13241C89.554 4.56295 91.031 4.27823 92.6896 4.27823C94.3837 4.27823 95.8536 4.56651 97.0993 5.14308C98.352 5.71253 99.3237 6.51333 100.014 7.54546C100.705 8.57759 101.057 9.77343 101.071 11.133H96.0102Z" fill="#1A1A1A"/>
<path d="M65.6335 26.4441V4.57721H80.8806V8.86945H70.9188V13.3539H80.1012V17.6568H70.9188V22.1519H80.8806V26.4441H65.6335Z" fill="#1A1A1A"/>
<path d="M57.6043 11.133C57.5331 10.35 57.2164 9.7414 56.654 9.3072C56.0988 8.86587 55.3051 8.64521 54.273 8.64521C53.5897 8.64521 53.0202 8.73419 52.5646 8.91214C52.1091 9.09009 51.7674 9.33567 51.5396 9.64887C51.3119 9.95495 51.1944 10.3073 51.1873 10.7059C51.1731 11.0333 51.2371 11.3216 51.3795 11.5708C51.529 11.8199 51.7425 12.0406 52.0201 12.2328C52.3048 12.4178 52.6465 12.5815 53.0451 12.7239C53.4437 12.8663 53.8922 12.9908 54.3905 13.0976L56.2696 13.5247C57.3516 13.7596 58.3054 14.0728 59.1311 14.4643C59.964 14.8558 60.6615 15.322 61.2239 15.863C61.7933 16.404 62.224 17.0268 62.5158 17.7315C62.8077 18.4362 62.9571 19.2263 62.9643 20.1019C62.9571 21.4828 62.6083 22.6679 61.9179 23.6574C61.2274 24.6468 60.2344 25.4049 58.9389 25.9316C57.6506 26.4584 56.0952 26.7217 54.273 26.7217C52.4436 26.7217 50.8492 26.4477 49.4896 25.8996C48.13 25.3515 47.073 24.5187 46.3185 23.4011C45.564 22.2836 45.176 20.8706 45.1547 19.1623H50.2157C50.2584 19.867 50.447 20.4542 50.7816 20.924C51.1161 21.3938 51.5752 21.7497 52.1589 21.9917C52.7497 22.2337 53.4331 22.3547 54.2089 22.3547C54.9208 22.3547 55.5258 22.2587 56.0241 22.0665C56.5295 21.8743 56.9174 21.6073 57.1879 21.2657C57.4584 20.924 57.5972 20.5325 57.6043 20.0912C57.5972 19.6783 57.469 19.326 57.2199 19.0341C56.9708 18.7352 56.5864 18.4789 56.0668 18.2654C55.5543 18.0447 54.8994 17.8418 54.1022 17.6568L51.8172 17.1229C49.9238 16.6887 48.4326 15.9876 47.3435 15.0195C46.2544 14.0443 45.7134 12.7275 45.7206 11.0689C45.7134 9.71649 46.0765 8.53132 46.8096 7.51342C47.5428 6.49553 48.5571 5.70186 49.8526 5.13241C51.1481 4.56295 52.6252 4.27823 54.2837 4.27823C55.9778 4.27823 57.4477 4.56651 58.6934 5.14308C59.9462 5.71253 60.9178 6.51333 61.6082 7.54546C62.2987 8.57759 62.6511 9.77343 62.6653 11.133H57.6043Z" fill="#1A1A1A"/>
</svg>
