<svg width="132" height="132" viewBox="0 0 132 132" fill="none" xmlns="http://www.w3.org/2000/svg">
<path d="M68.5591 92.6249C69.3715 92.6258 70.1529 92.9369 70.7437 93.4947C71.3344 94.0524 71.69 94.8146 71.7376 95.6257C71.7852 96.4367 71.5213 97.2353 70.9999 97.8583C70.4784 98.4813 69.7387 98.8817 68.932 98.9777L68.5591 99H62.184C61.3716 98.9991 60.5901 98.688 59.9994 98.1303C59.4086 97.5726 59.0531 96.8103 59.0055 95.9993C58.9579 95.1882 59.2217 94.3896 59.7432 93.7666C60.2646 93.1436 61.0043 92.7432 61.8111 92.6473L62.184 92.6249H68.5591ZM70.8126 48.9335C70.2638 48.3847 69.5335 48.055 68.7589 48.0063C67.9842 47.9576 67.2184 48.1932 66.6051 48.6689L66.3055 48.9335L59.9527 55.2862C59.3985 55.8405 59.0655 56.5779 59.0162 57.3602C58.9669 58.1424 59.2047 58.9158 59.685 59.5352L59.9527 59.838L64.0519 63.9372L59.9304 68.0587C59.3587 68.6323 59.0268 69.402 59.0021 70.2115C58.9774 71.0209 59.2617 71.8095 59.7973 72.4169C60.3329 73.0243 61.0797 73.4051 61.8859 73.4819C62.6921 73.5587 63.4973 73.3258 64.138 72.8304L64.4376 72.5658L70.7903 66.2131C71.9378 65.0656 72.0526 63.2455 71.0581 61.9641L70.7903 61.6613L66.6912 57.5621L70.8126 53.4407C71.4102 52.8429 71.7459 52.0323 71.7459 51.1871C71.7459 50.3419 71.4102 49.5313 70.8126 48.9335Z" fill="white"/>
<path opacity="0.3" d="M65.6 33C79.712 33 91.2 44.3376 91.2 58.3856C91.2 68.0048 86.3296 75.0128 82.304 79.1664L81.3952 80.072L80.5312 80.8784L79.7248 81.5824L78.6688 82.4464L77.6192 83.2272C76.848 83.7712 76.3296 84.568 75.8592 85.3968L75.2032 86.5616C74.4416 87.8736 73.5488 89 71.6576 89H59.5424C57.6544 89 56.7584 87.8768 55.9968 86.5616L55.6192 85.896C55.0688 84.8976 54.5056 83.88 53.5808 83.2272L52.8384 82.68L52.2016 82.184L51.4752 81.5824L50.6688 80.8784L49.8048 80.072L48.8928 79.1664C44.8704 75.0128 40 68.0048 40 58.3856C40 44.3376 51.488 33 65.6 33Z" fill="#AAFF00"/>
</svg>
